<?xml version="1.0" encoding="utf-8"?>
<!-- Generator: Adobe Illustrator 27.5.0, SVG Export Plug-In . SVG Version: 6.00 Build 0)  -->
<svg version="1.1" xmlns="http://www.w3.org/2000/svg" xmlns:xlink="http://www.w3.org/1999/xlink" x="0px" y="0px"
	 viewBox="0 0 500 500" style="enable-background:new 0 0 500 500;" xml:space="preserve">
<g id="BACKGROUND">
</g>
<g id="OBJECTS">
	<ellipse style="opacity:0.3;fill:#DB908C;" cx="271.644" cy="244.516" rx="168.85" ry="169.277"/>
	<path style="fill:none;stroke:#222221;stroke-width:1.1549;stroke-miterlimit:10;" d="M237.473,249.902"/>
	<g>
		<path style="fill:#C5D2F9;" d="M311.502,197.066h-65.906c-7.545,0-13.662,6.132-13.662,13.696v40.379
			c0,7.564,6.117,13.696,13.662,13.696l-0.749,12.676l21.158-12.676h45.496c7.545,0,13.662-6.132,13.662-13.696v-40.379
			C325.164,203.198,319.048,197.066,311.502,197.066z"/>
		<g>
			<path style="fill:#232335;" d="M309.734,219.658h-62.369c-1.13,0-2.046-0.916-2.046-2.045v-0.005c0-1.13,0.916-2.045,2.046-2.045
				h62.369c1.13,0,2.046,0.916,2.046,2.045v0.005C311.779,218.743,310.863,219.658,309.734,219.658z"/>
			<path style="fill:#232335;" d="M309.734,231.761h-62.369c-1.13,0-2.046-0.916-2.046-2.045v-0.005c0-1.13,0.916-2.046,2.046-2.046
				h62.369c1.13,0,2.046,0.916,2.046,2.046v0.005C311.779,230.845,310.863,231.761,309.734,231.761z"/>
			<path style="fill:#232335;" d="M309.734,243.864h-62.369c-1.13,0-2.046-0.916-2.046-2.045v-0.005c0-1.13,0.916-2.045,2.046-2.045
				h62.369c1.13,0,2.046,0.916,2.046,2.045v0.005C311.779,242.948,310.863,243.864,309.734,243.864z"/>
		</g>
	</g>
	<g>
		<g>
			<path style="fill:#C5D2F9;" d="M411.241,234.67h-53.683v-71.739h41.302c4.835,4.835,7.546,7.546,12.381,12.381V234.67z"/>
			<rect x="357.558" y="162.931" style="fill:#85A0D6;" width="18.299" height="31.437"/>
			<polygon style="fill:#FFFFFF;" points="398.876,162.931 398.876,175.062 411.241,175.062 			"/>
			<g>
				<path style="fill:#232335;" d="M397.739,181.633h-27.907c-0.628,0-1.137-0.509-1.137-1.137v-0.003
					c0-0.628,0.509-1.137,1.137-1.137h27.907c0.628,0,1.137,0.509,1.137,1.137v0.003
					C398.876,181.124,398.367,181.633,397.739,181.633z"/>
				<path style="fill:#232335;" d="M397.739,189.799h-27.907c-0.628,0-1.137-0.509-1.137-1.137v-0.003
					c0-0.628,0.509-1.137,1.137-1.137h27.907c0.628,0,1.137,0.509,1.137,1.137v0.003
					C398.876,189.29,398.367,189.799,397.739,189.799z"/>
				<path style="fill:#232335;" d="M397.739,197.965h-27.907c-0.628,0-1.137-0.509-1.137-1.136v-0.003
					c0-0.628,0.509-1.136,1.137-1.136h27.907c0.628,0,1.137,0.509,1.137,1.136v0.003
					C398.876,197.457,398.367,197.965,397.739,197.965z"/>
				<path style="fill:#232335;" d="M397.739,206.132h-27.907c-0.628,0-1.137-0.509-1.137-1.137v-0.003
					c0-0.628,0.509-1.137,1.137-1.137h27.907c0.628,0,1.137,0.509,1.137,1.137v0.003
					C398.876,205.623,398.367,206.132,397.739,206.132z"/>
				<path style="fill:#232335;" d="M397.739,214.298h-27.907c-0.628,0-1.137-0.509-1.137-1.136v-0.003
					c0-0.628,0.509-1.137,1.137-1.137h27.907c0.628,0,1.137,0.509,1.137,1.137v0.003
					C398.876,213.789,398.367,214.298,397.739,214.298z"/>
				<path style="fill:#232335;" d="M397.739,222.464h-27.907c-0.628,0-1.137-0.509-1.137-1.136v-0.003
					c0-0.628,0.509-1.137,1.137-1.137h27.907c0.628,0,1.137,0.509,1.137,1.137v0.003
					C398.876,221.956,398.367,222.464,397.739,222.464z"/>
			</g>
		</g>
		<g>
			<path style="fill:#C5D2F9;" d="M371.935,188.661h-53.683v-71.739h41.303c4.835,4.835,7.546,7.546,12.381,12.381V188.661z"/>
			<polygon style="fill:#FFFFFF;" points="359.571,116.922 359.571,129.053 371.935,129.053 			"/>
			<g>
				<path style="fill:#232335;" d="M358.434,135.624h-27.907c-0.628,0-1.137-0.509-1.137-1.137v-0.003
					c0-0.628,0.509-1.136,1.137-1.136h27.907c0.628,0,1.137,0.509,1.137,1.136v0.003
					C359.571,135.115,359.062,135.624,358.434,135.624z"/>
				<path style="fill:#232335;" d="M358.434,143.791h-27.907c-0.628,0-1.137-0.509-1.137-1.137v-0.003
					c0-0.628,0.509-1.137,1.137-1.137h27.907c0.628,0,1.137,0.509,1.137,1.137v0.003
					C359.571,143.282,359.062,143.791,358.434,143.791z"/>
				<path style="fill:#232335;" d="M358.434,151.957h-27.907c-0.628,0-1.137-0.509-1.137-1.137v-0.003
					c0-0.628,0.509-1.136,1.137-1.136h27.907c0.628,0,1.137,0.509,1.137,1.136v0.003
					C359.571,151.448,359.062,151.957,358.434,151.957z"/>
				<path style="fill:#232335;" d="M358.434,160.123h-27.907c-0.628,0-1.137-0.509-1.137-1.137v-0.003
					c0-0.628,0.509-1.136,1.137-1.136h27.907c0.628,0,1.137,0.509,1.137,1.136v0.003
					C359.571,159.615,359.062,160.123,358.434,160.123z"/>
				<path style="fill:#232335;" d="M358.434,168.29h-27.907c-0.628,0-1.137-0.509-1.137-1.137v-0.003
					c0-0.628,0.509-1.137,1.137-1.137h27.907c0.628,0,1.137,0.509,1.137,1.137v0.003C359.571,167.781,359.062,168.29,358.434,168.29
					z"/>
				<path style="fill:#232335;" d="M358.434,176.456h-27.907c-0.628,0-1.137-0.509-1.137-1.137v-0.003
					c0-0.628,0.509-1.136,1.137-1.136h27.907c0.628,0,1.137,0.509,1.137,1.136v0.003
					C359.571,175.947,359.062,176.456,358.434,176.456z"/>
			</g>
		</g>
	</g>
	<g>
		<path style="fill:#C5D2F9;" d="M111.342,215.562L111.342,215.562c6.585-6.076,10.714-14.787,10.714-24.466
			c0-18.363-14.848-33.249-33.165-33.249c-18.316,0-33.165,14.886-33.165,33.249c0,18.363,14.848,33.249,33.165,33.249
			c2.923,0,5.757-0.383,8.457-1.095c0,0,0,0.001,0,0.001c0,0,8.382,11.218,22.201,6.462
			C119.549,229.713,111.739,225.772,111.342,215.562z"/>
		<path style="fill:#232335;" d="M90.105,181.101l-5.035-12.168c0,0-10.535,2.248-8.955,14.534
			c2.007,15.615,11.595,31.839,25.714,25.967l-5.247-12.681c0,0-2.049-0.5-5.834,2.249c0,0-2.566,0.597-5.372-5.051
			c-2.806-5.648-2.084-9.003-0.767-9.786C84.608,184.166,88.764,184.171,90.105,181.101z"/>
	</g>
	<g>
		<g>
			
				<rect x="261.191" y="118.486" style="fill:none;stroke:#C9726F;stroke-width:1.8661;stroke-miterlimit:10;" width="25.241" height="25.305"/>
			<path style="fill:none;stroke:#C9726F;stroke-width:2.2032;stroke-miterlimit:10;" d="M266.565,127.371l6.69,10.192
				c0,0,6-15.68,21.119-25.35"/>
		</g>
		<g>
			<path style="fill:none;stroke:#C9726F;stroke-width:1.8661;stroke-miterlimit:10;" d="M144.732,175.062H253.41
				c6.137,0,11.111,4.987,11.111,11.139v5.036"/>
			<path style="fill:#C9726F;" d="M147.188,174.508c0,2.021-1.634,3.66-3.65,3.66c-2.016,0-3.65-1.638-3.65-3.66
				c0-2.021,1.634-3.66,3.65-3.66C145.553,170.848,147.188,172.487,147.188,174.508z"/>
			<ellipse style="fill:#C9726F;" cx="264.521" cy="191.237" rx="3.65" ry="3.66"/>
			<path style="fill:none;stroke:#C9726F;stroke-width:1.8661;stroke-miterlimit:10;" d="M253.57,131.138h-36.084
				c-5.619,0-10.174,4.567-10.174,10.2v33.723"/>
			<path style="fill:#C9726F;" d="M255.818,131.138c0,2.021-1.634,3.66-3.65,3.66c-2.016,0-3.65-1.639-3.65-3.66
				c0-2.021,1.634-3.66,3.65-3.66C254.184,127.479,255.818,129.117,255.818,131.138z"/>
		</g>
		<g>
			<path style="fill:none;stroke:#C9726F;stroke-width:1.8661;stroke-miterlimit:10;" d="M422.505,210.665h6.079
				c8.47,0,15.337,6.884,15.337,15.376v50.234"/>
			<path style="fill:#C9726F;" d="M426.156,210.665c0,2.021-1.634,3.66-3.65,3.66c-2.016,0-3.65-1.638-3.65-3.66
				c0-2.021,1.634-3.66,3.65-3.66C424.521,207.005,426.156,208.644,426.156,210.665z"/>
			<path style="fill:#C9726F;" d="M447.572,276.274c0,2.021-1.634,3.66-3.65,3.66c-2.016,0-3.65-1.638-3.65-3.66
				c0-2.021,1.634-3.66,3.65-3.66C445.938,272.614,447.572,274.253,447.572,276.274z"/>
		</g>
		<g>
			<path style="fill:none;stroke:#C9726F;stroke-width:1.932;stroke-miterlimit:10;" d="M354.5,109.94
				c8.325-7.801,19.507-12.576,31.801-12.576c25.727,0,46.582,20.908,46.582,46.7c0,12.207-4.672,23.321-12.321,31.641"/>
			<path style="fill:#C9726F;" d="M358.151,109.607c0,2.021-1.634,3.66-3.65,3.66c-2.016,0-3.65-1.638-3.65-3.66
				s1.634-3.66,3.65-3.66C356.516,105.948,358.151,107.586,358.151,109.607z"/>
			<path style="fill:#C9726F;" d="M424.483,175.702c0,2.021-1.634,3.66-3.65,3.66c-2.016,0-3.65-1.639-3.65-3.66
				c0-2.021,1.634-3.66,3.65-3.66C422.848,172.042,424.483,173.68,424.483,175.702z"/>
		</g>
	</g>
	<g>
		<g>
			<polygon style="fill:#9EB6F2;" points="426.983,376.054 305.821,376.054 324.731,283.847 445.893,283.847 			"/>
			<path style="fill:#4D61E6;" d="M378.308,318.37h28.023l15.826,63.553c1.814,7.283-3.681,14.336-11.169,14.336h-31.619
				l12.855-19.489L378.308,318.37z"/>
			<path style="fill:#121D5F;" d="M378.308,318.37l14.494,60.826c2.074,8.703-4.508,17.063-13.433,17.063h-39.93v-7.172h40.602
				c3.954,0,6.884-3.683,6.004-7.548l-14.389-63.169H378.308z"/>
			<g>
				<polygon style="fill:#85A0D6;" points="324.731,283.847 330.684,283.847 311.343,376.054 305.821,376.054 				"/>
				<path style="fill:#85A0D6;" d="M359.255,294.398L359.255,294.398c1.051,0,1.843,0.958,1.648,1.993l-3.105,16.501
					c-0.15,0.794-0.842,1.37-1.648,1.37h-0.289c-1.063,0-1.857-0.978-1.642-2.021l3.395-16.501
					C357.773,294.959,358.459,294.398,359.255,294.398z"/>
				<path style="fill:#85A0D6;" d="M365.965,294.398L365.965,294.398c1.051,0,1.843,0.958,1.648,1.993l-3.105,16.501
					c-0.149,0.794-0.842,1.37-1.648,1.37h-0.29c-1.062,0-1.857-0.978-1.642-2.021l3.395-16.501
					C364.484,294.959,365.17,294.398,365.965,294.398z"/>
				<path style="fill:#85A0D6;" d="M372.676,294.398L372.676,294.398c1.051,0,1.843,0.958,1.648,1.993l-3.105,16.501
					c-0.15,0.794-0.842,1.37-1.648,1.37h-0.29c-1.062,0-1.857-0.978-1.643-2.021l3.395-16.501
					C371.194,294.959,371.88,294.398,372.676,294.398z"/>
				<path style="fill:#85A0D6;" d="M379.386,294.398L379.386,294.398c1.051,0,1.843,0.958,1.648,1.993l-3.105,16.501
					c-0.15,0.794-0.842,1.37-1.648,1.37h-0.29c-1.062,0-1.857-0.978-1.643-2.021l3.395-16.501
					C377.904,294.959,378.591,294.398,379.386,294.398z"/>
				<path style="fill:#85A0D6;" d="M386.097,294.398L386.097,294.398c1.051,0,1.843,0.958,1.648,1.993l-3.105,16.501
					c-0.15,0.794-0.842,1.37-1.648,1.37h-0.29c-1.062,0-1.857-0.978-1.642-2.021l3.395-16.501
					C384.615,294.959,385.301,294.398,386.097,294.398z"/>
				<path style="fill:#85A0D6;" d="M392.807,294.398L392.807,294.398c1.051,0,1.843,0.958,1.648,1.993l-3.105,16.501
					c-0.15,0.794-0.842,1.37-1.648,1.37h-0.29c-1.062,0-1.857-0.978-1.643-2.021l3.395-16.501
					C391.325,294.959,392.011,294.398,392.807,294.398z"/>
				<path style="fill:#85A0D6;" d="M399.517,294.398L399.517,294.398c1.051,0,1.843,0.958,1.648,1.993l-3.105,16.501
					c-0.15,0.794-0.842,1.37-1.648,1.37h-0.29c-1.062,0-1.857-0.978-1.642-2.021l3.395-16.501
					C398.036,294.959,398.722,294.398,399.517,294.398z"/>
				<path style="fill:#85A0D6;" d="M406.228,294.398L406.228,294.398c1.051,0,1.843,0.958,1.648,1.993l-3.105,16.501
					c-0.149,0.794-0.842,1.37-1.648,1.37h-0.289c-1.062,0-1.857-0.978-1.643-2.021l3.395-16.501
					C404.746,294.959,405.432,294.398,406.228,294.398z"/>
				<path style="fill:#85A0D6;" d="M412.938,294.398L412.938,294.398c1.051,0,1.843,0.958,1.648,1.993l-3.105,16.501
					c-0.149,0.794-0.842,1.37-1.648,1.37h-0.289c-1.062,0-1.857-0.978-1.643-2.021l3.395-16.501
					C411.456,294.959,412.143,294.398,412.938,294.398z"/>
				<path style="fill:#85A0D6;" d="M419.649,294.398L419.649,294.398c1.051,0,1.843,0.958,1.648,1.993l-3.105,16.501
					c-0.15,0.794-0.842,1.37-1.648,1.37h-0.289c-1.062,0-1.857-0.978-1.642-2.021l3.395-16.501
					C418.167,294.959,418.853,294.398,419.649,294.398z"/>
			</g>
		</g>
		<rect x="266.089" y="389.087" style="fill:#9EB6F2;" width="68.323" height="7.172"/>
		<path style="fill:#9EB6F2;" d="M228.062,396.259h31.372c0,0-0.815-12.829-11.554-12.829S228.125,387.096,228.062,396.259z"/>
		<rect x="84.838" y="396.565" style="fill:#232335;" width="361.055" height="17.855"/>
		<g>
			<g>
				<path style="fill:#DB908C;" d="M218.88,396.565H98.389l-10.061-90.014c-0.846-7.569,5.062-14.193,12.66-14.193h86.687
					c5.931,0,10.915,4.468,11.575,10.377L218.88,396.565z"/>
				<path style="fill:#C9726F;" d="M100.988,292.358c0,0-14.104,1.267-12.66,14.193c1.445,12.927,10.061,90.014,10.061,90.014
					h20.132l-10.517-89.389C108.004,307.176,105.69,294.044,100.988,292.358z"/>
			</g>
			<path style="fill:#4D61E6;" d="M151.572,301.911l-26.019,10.536c-5.624,2.277-9.636,7.357-10.556,13.368l-8.491,55.438
				c-1.233,8.052,4.981,15.312,13.107,15.312h105.844c10.037,0,17.256-9.669,14.428-19.323l-16.148-55.126
				c-1.582-5.402-5.697-9.689-11.02-11.483l-28.622-9.644l-6.315,11.117L151.572,301.911z"/>
			<g>
				<path style="fill:#4D61E6;" d="M249.609,313.737h25.576l-9.669,64.335c-1.867,12.386-7.702,16.755-16.251,17.321l-23.478,1.555
					L249.609,313.737z"/>
				<polygon style="fill:#9EB6F2;" points="246.513,325.034 273.486,325.034 275.184,313.737 249.609,313.737 				"/>
				<linearGradient id="SVGID_1_" gradientUnits="userSpaceOnUse" x1="250.9975" y1="299.9554" x2="295.7119" y2="299.9554">
					<stop  offset="0" style="stop-color:#DA8676"/>
					<stop  offset="0.3566" style="stop-color:#E39E91"/>
					<stop  offset="0.753" style="stop-color:#EAB2A8"/>
					<stop  offset="1" style="stop-color:#EDBAB1"/>
				</linearGradient>
				<path style="fill:url(#SVGID_1_);" d="M250.997,313.737l6.897-14.429h26.82l4.915-11.005c0.592-1.296,1.883-2.128,3.305-2.128
					h2.778L290.628,305l-15.977,3.432l-0.622,5.304H250.997z"/>
				<path style="fill:#DA8676;" d="M277.555,299.307l8.332-14.263c0.688-1.169,1.941-1.886,3.295-1.886h2.795l-7.262,16.149H277.555
					z"/>
				<path style="fill:#DA8676;" d="M285.201,286.174h-2.98c-1.608,0-3.1,0.84-3.936,2.217l-6.641,10.915h5.911L285.201,286.174z"/>
				<path style="fill:#DA8676;" d="M266.664,299.307l-4.48-6.815c-1.079-1.67-2.929-2.678-4.913-2.678h0
					c-0.881,0-1.528,0.831-1.312,1.688l2.034,7.805H266.664z"/>
			</g>
			
				<linearGradient id="SVGID_00000051362713399415617840000018329404293953335201_" gradientUnits="userSpaceOnUse" x1="168.3848" y1="226.299" x2="168.3848" y2="304.6135">
				<stop  offset="0" style="stop-color:#DA8676"/>
				<stop  offset="0.3566" style="stop-color:#E39E91"/>
				<stop  offset="0.753" style="stop-color:#EAB2A8"/>
				<stop  offset="1" style="stop-color:#EDBAB1"/>
			</linearGradient>
			<path style="fill:url(#SVGID_00000051362713399415617840000018329404293953335201_);" d="M180.398,281.545l3.696,19.443
				l-6.315,11.117l-25.105-16.83l2.743-14.298c0,0,1.968,0.568,2.693,0.568C158.836,281.545,180.398,281.545,180.398,281.545z"/>
			<polygon style="fill:#FFFFFF;" points="152.675,295.276 150.991,305.408 186.251,370.316 186.669,307.888 184.094,300.989 
				177.78,312.106 			"/>
			<g>
				<polygon style="fill:#9EB6F2;" points="152.675,295.276 148.363,321.216 177.78,312.106 				"/>
				<polygon style="fill:#9EB6F2;" points="184.094,300.989 177.78,312.106 191.641,321.216 				"/>
			</g>
			<g>
				<polygon style="fill:#C9726F;" points="177.78,312.106 168.385,315.015 173.082,322.296 181.938,322.296 182.925,315.487 				
					"/>
				<polygon style="fill:#C9726F;" points="173.082,322.296 173.593,347.016 186.251,370.316 186.669,347.155 181.938,322.296 				
					"/>
			</g>
			<polyline style="fill:#121D5F;" points="151.572,301.911 138.091,307.37 148.363,327.342 159.082,329.007 154.992,340.053 
				186.251,370.316 150.991,300.989 			"/>
			<polygon style="fill:#121D5F;" points="184.094,300.989 186.251,370.316 194.97,335.652 189.532,328.637 194.97,328.452 
				196.714,305.241 			"/>
			<g>
				<g>
					<path style="fill:#121D5F;" d="M193.199,242.079l2.128,25.099c0,0,11.404,0.279,9.587-14.247
						C203.19,239.138,193.199,242.079,193.199,242.079z"/>
					<path style="fill:#4D61E6;" d="M196.346,241.866c0,0-1.908-0.084-3.147,0.213l2.128,25.099c0,0,1.701,0.041,3.119-0.544
						L196.346,241.866z"/>
				</g>
				
					<linearGradient id="SVGID_00000038392143130328931730000004262202777084197271_" gradientUnits="userSpaceOnUse" x1="174.6497" y1="226.299" x2="174.6497" y2="304.6134">
					<stop  offset="0" style="stop-color:#DA8676"/>
					<stop  offset="0.3566" style="stop-color:#E39E91"/>
					<stop  offset="0.753" style="stop-color:#EAB2A8"/>
					<stop  offset="1" style="stop-color:#EDBAB1"/>
				</linearGradient>
				<path style="fill:url(#SVGID_00000038392143130328931730000004262202777084197271_);" d="M158.111,224.345h29.274
					c3.481,0,6.384,2.668,6.687,6.145l3.803,43.743c0.342,3.932-2.75,7.313-6.686,7.313h-33.077c-3.707,0-6.712-3.013-6.712-6.729
					v-43.743C151.399,227.357,154.404,224.345,158.111,224.345z"/>
				<path style="fill:#232335;" d="M158.202,251.789v-14.332c0-1.213,0.862-2.253,2.051-2.475l12.84-2.396
					c2.077-0.388,4.196,0.427,5.483,2.107l3.236,4.227c1.444,1.886,3.706,2.96,6.077,2.884l8.001-0.014
					c4.098-0.131,7.353-3.5,7.353-7.61v-9.406c0-2.046-0.694-4.03-1.969-5.628l-0.125-0.156c0,0,1.309-8.396-1.047-11.545
					c-2.356-3.149-7.852,8.396-7.852,8.396l-42.775-0.417c-6.791,0-12.071,5.922-11.312,12.688l2.761,24.601
					c0.3,2.673,2.555,4.694,5.238,4.694h6.436C155.693,257.405,158.202,254.891,158.202,251.789z"/>
				<g>
					<g>
						<path style="fill:#4D61E6;" d="M144.745,248.096l-2.312-29.452c-0.246-3.13,2.221-5.806,5.353-5.806h46.048l-1.584,3.002
							l-40.297-0.024c-3.124,0-5.589,2.664-5.355,5.787l1.923,25.63L144.745,248.096z"/>
						<g>
							<path style="fill:#121D5F;" d="M151.399,244.588v25.189c0,0-14.029,1.246-13.308-13.382
								C138.775,242.506,151.399,244.588,151.399,244.588z"/>
							<path style="fill:#4D61E6;" d="M147.498,244.643c0,0,2.343-0.245,3.901-0.055v25.189c0,0-2.092,0.185-3.901-0.277V244.643z"
								/>
						</g>
					</g>
					<path style="fill:#4D61E6;" d="M147.498,269.5l0.449,4.062c0.289,2.611,2.49,4.587,5.11,4.587h17.61v-2.929h-14.586
						c-2.654,0-4.434-2.025-4.682-4.673v-0.77L147.498,269.5z"/>
					<path style="fill:#121D5F;" d="M174.13,279.388h-5.045c-1.404,0-2.542-1.138-2.542-2.542v-0.48
						c0-1.404,1.138-2.542,2.542-2.542h5.045c1.404,0,2.541,1.138,2.541,2.542v0.48C176.671,278.25,175.533,279.388,174.13,279.388z
						"/>
				</g>
				<path style="fill:#FFFFFF;" d="M170.177,265.529h17.224c0,0-2.022,6.421-8.612,6.421
					C172.458,271.949,170.177,265.529,170.177,265.529z"/>
			</g>
			<polygon style="fill:#DA8676;" points="180.398,281.545 162.171,280.978 182.167,290.85 			"/>
			<g>
				<polygon style="fill:#121D5F;" points="210.578,379.611 203.654,359.045 208.121,359.045 215.821,380.807 				"/>
				<g>
					<path style="fill:#4D61E6;" d="M189.485,369.235l3.85,27.33h-73.532c-8.568,0-15.064-7.748-13.59-16.21l4.695-26.955
						L189.485,369.235z"/>
					<polygon style="fill:#9EB6F2;" points="177.78,366.876 177.78,396.565 193.335,396.565 189.485,369.235 					"/>
					<polyline style="fill:none;stroke:#1E2D8B;stroke-width:1.1016;stroke-miterlimit:10;" points="144.732,340.053 
						141.454,359.556 189.485,369.235 190.295,374.983 					"/>
					<g>
						
							<linearGradient id="SVGID_00000070819347862278415840000004654218655926564485_" gradientUnits="userSpaceOnUse" x1="224.4711" y1="387.0107" x2="200.5382" y2="386.1042">
							<stop  offset="0" style="stop-color:#DA8676"/>
							<stop  offset="0.3566" style="stop-color:#E39E91"/>
							<stop  offset="0.753" style="stop-color:#EAB2A8"/>
							<stop  offset="1" style="stop-color:#EDBAB1"/>
						</linearGradient>
						<path style="fill:url(#SVGID_00000070819347862278415840000004654218655926564485_);" d="M190.295,374.983l26.284,5.997
							c1.899,0.433,3.247,2.126,3.247,4.079v1.624l1.413,0.283c1.865,0.374,3.207,2.016,3.207,3.922v2.434h-2.002l0.308,3.243
							h-29.417L190.295,374.983z"/>
						<g>
							
								<line style="fill:none;stroke:#DA8676;stroke-width:1.1016;stroke-miterlimit:10;" x1="211.817" y1="384.83" x2="219.826" y2="386.683"/>
							
								<line style="fill:none;stroke:#DA8676;stroke-width:1.1016;stroke-miterlimit:10;" x1="212.741" y1="391.933" x2="222.444" y2="393.322"/>
						</g>
					</g>
				</g>
			</g>
		</g>
	</g>
</g>
</svg>
